<?xml version="1.0" standalone="no"?>
<!DOCTYPE svg PUBLIC "-//W3C//DTD SVG 20010904//EN"
 "http://www.w3.org/TR/2001/REC-SVG-20010904/DTD/svg10.dtd">
<svg version="1.0" xmlns="http://www.w3.org/2000/svg"
 width="200.000000pt" height="200.000000pt" viewBox="0 0 200.000000 200.000000"
 preserveAspectRatio="xMidYMid meet">

<g transform="translate(0.000000,200.000000) scale(0.100000,-0.100000)"
fill="#000000" stroke="none">
<path d="M837 1885 c-346 -66 -623 -327 -709 -670 -32 -127 -31 -314 1 -435
76 -284 271 -509 532 -613 100 -40 182 -57 304 -63 417 -22 794 260 907 678
32 119 32 317 0 438 -85 316 -337 570 -647 651 -106 27 -283 34 -388 14z m423
-84 c131 -44 237 -110 334 -207 97 -96 162 -202 208 -334 32 -92 33 -100 33
-260 0 -160 -1 -168 -33 -260 -94 -271 -307 -477 -573 -554 -140 -40 -330 -38
-474 5 -200 60 -386 209 -490 394 -19 33 -48 103 -66 155 -27 80 -33 114 -37
216 -5 141 6 220 49 340 76 209 257 398 462 481 131 53 191 63 347 60 132 -3
154 -7 240 -36z"/>
<path d="M857 1814 c-330 -60 -595 -317 -668 -649 -20 -93 -15 -274 10 -370
78 -295 300 -518 592 -597 108 -29 300 -31 398 -5 192 52 340 146 455 292 393
492 113 1221 -509 1330 -105 18 -174 18 -278 -1z m283 -28 c276 -50 514 -250
609 -513 76 -208 63 -431 -35 -626 -19 -39 -41 -78 -48 -88 -13 -18 -13 -18
-31 1 -17 19 -16 22 23 102 60 122 76 192 76 333 0 144 -16 213 -79 341 -167
341 -586 495 -940 347 -186 -78 -346 -246 -410 -430 -68 -195 -56 -389 35
-581 38 -80 39 -84 23 -108 l-16 -25 -29 43 c-62 94 -118 293 -118 422 0 133
50 301 123 419 171 273 500 420 817 363z m15 -91 c39 -8 111 -35 160 -59 155
-77 246 -168 320 -321 57 -118 79 -225 72 -354 -6 -117 -26 -191 -77 -293
l-39 -78 25 -29 c29 -35 30 -55 4 -81 -20 -20 -33 -20 -624 -20 l-605 0 -15
22 c-9 12 -16 30 -16 39 0 10 45 72 101 138 l101 121 89 0 c80 0 95 3 154 32
44 22 65 38 65 50 0 16 -11 18 -117 18 -117 0 -127 2 -171 37 -83 64 -78 52
-106 253 -14 102 -26 190 -26 197 0 7 29 28 65 48 60 34 65 39 65 71 0 21 8
42 20 54 19 19 33 20 400 20 367 0 381 -1 400 -20 12 -12 20 -33 20 -55 0 -31
5 -37 48 -59 26 -13 57 -32 69 -42 l21 -19 -32 -199 c-32 -197 -32 -198 -61
-213 -17 -9 -42 -28 -57 -44 -27 -29 -27 -29 -152 -29 -114 0 -126 -2 -126
-18 0 -12 21 -28 65 -50 59 -29 75 -32 153 -32 l88 0 63 -75 c34 -41 65 -75
67 -75 7 0 61 113 77 161 27 80 39 200 28 286 -22 170 -79 288 -201 415 l-75
78 -389 0 -389 0 -51 -47 c-165 -153 -238 -313 -238 -523 0 -112 20 -207 62
-290 33 -65 37 -90 16 -90 -20 0 -82 144 -100 232 -34 164 -14 315 60 468 39
80 61 109 133 181 142 141 299 207 496 208 50 0 122 -6 160 -14z m-603 -1286
c65 -51 143 -91 238 -121 63 -19 97 -23 205 -23 186 0 307 38 451 140 42 31
73 45 94 45 38 0 37 -6 -15 -51 -92 -81 -205 -142 -326 -175 -46 -13 -102 -18
-199 -18 -160 -1 -222 13 -355 79 -86 42 -215 136 -215 155 0 6 16 10 35 10
26 0 49 -11 87 -41z m894 32 c-10 -16 -122 -78 -187 -104 -98 -39 -175 -50
-301 -45 -92 4 -128 11 -195 35 -68 25 -213 106 -213 119 0 2 203 4 451 4 253
0 448 -4 445 -9z"/>
<path d="M915 1674 c-61 -10 -143 -34 -191 -56 l-49 -23 163 -3 c89 -1 235 -1
325 0 l162 3 -48 22 c-96 45 -268 72 -362 57z"/>
<path d="M612 1528 c-18 -18 -17 -603 1 -615 6 -4 71 -10 142 -13 l130 -5 0
-30 c0 -26 -7 -34 -50 -57 l-50 -28 215 1 215 0 -47 25 c-43 22 -48 28 -48 59
l0 35 128 0 c86 0 132 4 140 12 17 17 17 599 0 616 -17 17 -759 17 -776 0z
m762 -14 c14 -13 16 -48 16 -230 l0 -214 -390 0 -390 0 0 218 c0 156 3 221 12
230 9 9 106 12 374 12 316 0 365 -2 378 -16z m16 -494 l0 -40 -390 0 -390 0 0
40 0 40 390 0 390 0 0 -40z m-15 -100 c-8 -13 -724 -13 -745 0 -10 6 117 10
368 10 253 0 381 -3 377 -10z"/>
<path d="M640 1305 l0 -205 360 0 360 0 0 205 0 205 -360 0 -360 0 0 -205z
m258 22 c17 -14 15 -63 -4 -82 -23 -22 -66 -15 -80 13 -31 62 28 112 84 69z
m-167 -24 l13 -38 14 38 c13 33 32 50 32 29 0 -25 -34 -102 -45 -102 -11 0
-45 77 -45 102 0 22 20 4 31 -29z m274 -3 c0 -19 4 -41 9 -48 15 -24 -5 -28
-24 -4 -23 27 -30 28 -30 1 0 -12 -5 -19 -12 -17 -8 3 -14 26 -16 57 l-3 52
38 -3 c36 -3 38 -5 38 -38z m105 30 c0 -5 -7 -10 -15 -10 -11 0 -15 -12 -15
-45 0 -25 -4 -45 -10 -45 -5 0 -10 20 -10 45 0 33 -4 45 -15 45 -8 0 -15 5
-15 10 0 6 18 10 40 10 22 0 40 -4 40 -10z m80 0 c0 -5 -9 -10 -20 -10 -11 0
-20 -4 -20 -10 0 -5 9 -10 20 -10 11 0 20 -4 20 -10 0 -5 -9 -10 -20 -10 -11
0 -20 -7 -20 -15 0 -8 9 -15 20 -15 11 0 20 -4 20 -10 0 -5 -13 -10 -30 -10
-30 0 -30 1 -30 55 0 54 0 55 30 55 17 0 30 -4 30 -10z m56 -7 c12 -17 13 -17
19 0 4 9 14 17 22 17 13 0 13 -3 -1 -25 -15 -23 -15 -27 0 -50 9 -14 13 -29 9
-33 -4 -4 -14 4 -23 16 l-16 24 -17 -23 c-23 -31 -35 -18 -14 14 15 24 15 27
0 51 -20 30 -1 38 21 9z"/>
<path d="M841 1317 c-16 -16 -13 -57 5 -64 22 -8 47 20 40 45 -8 25 -30 34
-45 19z"/>
<path d="M960 1304 c0 -17 22 -14 28 4 2 7 -3 12 -12 12 -9 0 -16 -7 -16 -16z"/>
<path d="M513 1393 c-24 -13 -43 -30 -43 -36 0 -7 12 -93 26 -192 23 -153 30
-183 48 -197 11 -10 26 -17 31 -17 6 0 -2 10 -16 22 -24 20 -28 35 -48 177
-12 85 -24 167 -27 181 -4 23 1 30 40 53 43 25 56 37 39 35 -5 -1 -27 -12 -50
-26z"/>
<path d="M1468 1389 c28 -17 52 -36 52 -43 0 -7 -11 -84 -25 -172 -14 -87 -25
-164 -25 -170 0 -6 -12 -16 -26 -23 -15 -6 -24 -14 -22 -17 6 -6 58 17 58 25
0 12 50 326 55 348 4 19 -3 28 -42 53 -27 16 -55 30 -63 30 -8 0 9 -14 38 -31z"/>
<path d="M537 1370 c-15 -9 -29 -19 -32 -22 -5 -5 41 -321 50 -345 2 -7 9 -13
15 -13 12 0 14 386 3 393 -5 2 -20 -3 -36 -13z"/>
<path d="M1420 1195 c0 -164 2 -195 15 -195 8 0 16 13 19 33 20 118 46 290 46
302 0 8 -18 24 -40 35 l-40 20 0 -195z"/>
<path d="M475 650 c-49 -60 -91 -117 -93 -125 -10 -45 -15 -45 618 -45 582 0
597 0 615 20 21 24 25 18 -95 159 l-85 99 -435 1 -435 0 -90 -109z m1035 -5
l91 -105 -596 0 -597 0 19 24 c10 13 47 60 83 105 l65 81 422 0 422 0 91 -105z"/>
<path d="M630 722 c-39 -6 -49 -22 -13 -22 18 0 35 5 38 11 9 14 5 16 -25 11z"/>
<path d="M678 713 c-10 -12 -6 -14 23 -11 19 2 32 7 29 13 -8 14 -39 13 -52
-2z"/>
<path d="M757 723 c-15 -14 -6 -23 23 -23 20 0 30 5 30 15 0 15 -40 21 -53 8z"/>
<path d="M828 713 c-10 -12 -6 -14 23 -11 19 2 32 7 29 13 -8 14 -39 13 -52
-2z"/>
<path d="M907 724 c-15 -15 -6 -24 24 -24 20 0 29 4 27 13 -5 14 -40 21 -51
11z"/>
<path d="M1143 722 c-34 -5 -28 -22 7 -22 17 0 30 4 30 9 0 14 -11 18 -37 13z"/>
<path d="M1270 715 c0 -10 10 -15 30 -15 32 0 40 14 14 24 -27 10 -44 7 -44
-9z"/>
<path d="M1342 718 c3 -7 20 -14 38 -16 30 -3 32 -2 21 12 -16 19 -65 22 -59
4z"/>
<path d="M970 710 c0 -5 14 -10 30 -10 17 0 30 5 30 10 0 6 -13 10 -30 10 -16
0 -30 -4 -30 -10z"/>
<path d="M1050 710 c0 -5 14 -10 31 -10 17 0 28 4 24 10 -3 6 -17 10 -31 10
-13 0 -24 -4 -24 -10z"/>
<path d="M1195 710 c3 -5 20 -10 36 -10 18 0 28 4 24 10 -3 6 -20 10 -36 10
-18 0 -28 -4 -24 -10z"/>
<path d="M566 675 c-4 -12 2 -15 28 -15 21 0 36 6 40 15 4 12 -2 15 -28 15
-21 0 -36 -6 -40 -15z"/>
<path d="M657 683 c-15 -14 -6 -23 22 -23 16 0 31 6 35 15 4 11 -2 15 -23 15
-15 0 -31 -3 -34 -7z"/>
<path d="M737 683 c-16 -15 -5 -24 25 -21 41 4 50 28 11 28 -17 0 -33 -3 -36
-7z"/>
<path d="M817 683 c-16 -15 -5 -24 25 -21 41 4 50 28 11 28 -17 0 -33 -3 -36
-7z"/>
<path d="M890 675 c0 -12 8 -16 33 -13 17 2 32 8 32 13 0 6 -15 11 -32 13 -25
3 -33 -1 -33 -13z"/>
<path d="M970 675 c0 -10 10 -15 30 -15 20 0 30 5 30 15 0 10 -10 15 -30 15
-20 0 -30 -5 -30 -15z"/>
<path d="M1050 675 c0 -10 10 -15 30 -15 20 0 30 5 30 15 0 10 -10 15 -30 15
-20 0 -30 -5 -30 -15z"/>
<path d="M1130 675 c0 -10 10 -15 30 -15 20 0 30 5 30 15 0 10 -10 15 -30 15
-20 0 -30 -5 -30 -15z"/>
<path d="M1202 678 c7 -20 68 -23 68 -4 0 12 -10 16 -36 16 -24 0 -34 -4 -32
-12z"/>
<path d="M1286 676 c4 -10 18 -16 36 -16 40 0 32 24 -10 28 -25 3 -31 0 -26
-12z"/>
<path d="M1366 675 c4 -9 19 -15 41 -15 30 0 34 2 23 15 -7 8 -25 15 -41 15
-21 0 -27 -4 -23 -15z"/>
<path d="M536 634 c-5 -12 1 -15 31 -12 48 4 57 28 10 28 -22 0 -37 -6 -41
-16z"/>
<path d="M627 643 c-15 -14 -5 -23 27 -23 21 0 36 6 40 15 4 11 -2 15 -28 15
-18 0 -36 -3 -39 -7z"/>
<path d="M706 634 c-5 -12 1 -15 31 -12 48 4 57 28 10 28 -22 0 -37 -6 -41
-16z"/>
<path d="M796 634 c-5 -12 1 -15 31 -12 48 4 57 28 10 28 -22 0 -37 -6 -41
-16z"/>
<path d="M880 635 c0 -10 11 -15 35 -15 24 0 35 5 35 15 0 10 -11 15 -35 15
-24 0 -35 -5 -35 -15z"/>
<path d="M970 635 c0 -12 8 -16 33 -13 17 2 32 8 32 13 0 6 -15 11 -32 13 -25
3 -33 -1 -33 -13z"/>
<path d="M1050 635 c0 -10 11 -15 35 -15 24 0 35 5 35 15 0 10 -11 15 -35 15
-24 0 -35 -5 -35 -15z"/>
<path d="M1136 635 c4 -9 19 -15 40 -15 26 0 32 3 28 15 -4 9 -19 15 -40 15
-26 0 -32 -3 -28 -15z"/>
<path d="M1220 635 c0 -10 11 -15 35 -15 24 0 35 5 35 15 0 10 -11 15 -35 15
-24 0 -35 -5 -35 -15z"/>
<path d="M1306 636 c4 -10 19 -16 41 -16 47 0 38 24 -10 28 -30 3 -36 0 -31
-12z"/>
<path d="M1392 638 c3 -7 21 -14 41 -16 30 -3 36 0 31 12 -8 20 -78 23 -72 4z"/>
<path d="M500 591 c-15 -28 -13 -31 18 -31 26 0 62 25 62 43 0 4 -16 7 -35 7
-24 0 -37 -6 -45 -19z"/>
<path d="M593 591 c-15 -23 -8 -31 28 -31 18 0 32 7 39 19 15 29 13 31 -23 31
-21 0 -36 -7 -44 -19z"/>
<path d="M686 594 c-11 -30 -6 -35 30 -32 27 2 39 9 45 26 8 20 6 22 -30 22
-26 0 -41 -5 -45 -16z"/>
<path d="M777 591 c-3 -11 -2 -22 1 -25 8 -8 437 -7 445 0 3 4 2 15 -4 25 -9
18 -25 19 -223 19 -203 0 -214 -1 -219 -19z"/>
<path d="M1230 604 c0 -25 24 -44 55 -44 35 0 40 5 29 34 -4 11 -19 16 -45 16
-21 0 -39 -3 -39 -6z"/>
<path d="M1330 590 c8 -15 21 -20 50 -20 38 0 39 1 28 20 -9 14 -24 20 -51 20
-35 0 -37 -2 -27 -20z"/>
<path d="M1422 590 c14 -23 50 -35 73 -26 13 5 13 9 3 26 -9 14 -24 20 -50 20
-36 0 -37 -1 -26 -20z"/>
<path d="M995 430 l-360 -5 68 -33 c175 -84 365 -92 547 -21 69 27 119 55 109
61 -2 2 -166 1 -364 -2z"/>
</g>
</svg>
